<svg version="1.1" id="Layer_1" xmlns="http://www.w3.org/2000/svg" xmlns:xlink="http://www.w3.org/1999/xlink" x="0px" y="0px"
	 width="100%" viewBox="0 0 4500 4500" enable-background="new 0 0 4500 4500" xml:space="preserve">
<path fill="#FFFFFF" opacity="1.000000" stroke="none" 
	d="
M2176.000000,4504.000000 
	C1450.746826,4504.000000 727.493652,4504.000000 4.120224,4504.000000 
	C4.120224,3004.246338 4.120224,1504.492676 4.120224,4.369535 
	C1503.587280,4.369535 3003.174805,4.369535 4503.380859,4.369535 
	C4503.380859,1503.999756 4503.380859,3003.999756 4503.380859,4504.000000 
	C3728.490967,4504.000000 2953.245361,4504.000000 2176.000000,4504.000000 
M3123.881104,2216.430420 
	C3126.495117,2215.923340 3129.177979,2215.643799 3131.713135,2214.876221 
	C3216.480957,2189.215088 3287.149658,2142.517334 3341.198242,2072.105225 
	C3411.302002,1980.776855 3434.200439,1877.245605 3414.503662,1764.838501 
	C3401.050049,1688.061646 3364.446533,1621.910645 3310.431396,1565.883545 
	C3265.799072,1519.589355 3212.257812,1486.590820 3152.172363,1463.915894 
	C3098.684814,1443.730957 3043.115479,1434.608887 2986.297607,1431.815063 
	C2977.646240,1431.389526 2968.905518,1431.849121 2960.337158,1430.815308 
	C2925.777344,1426.644897 2891.131836,1428.772949 2856.524414,1429.057739 
	C2841.913330,1429.177979 2827.322510,1431.279053 2812.707275,1431.508545 
	C2788.057617,1431.895630 2763.395996,1431.463379 2738.739258,1431.483276 
	C2733.480957,1431.487549 2728.223145,1431.951660 2721.453613,1432.276489 
	C2704.930420,1472.236084 2689.859863,1512.684204 2674.125488,1552.858276 
	C2658.101807,1593.771606 2642.262939,1634.757446 2626.352539,1675.715210 
	C2610.682861,1716.052979 2595.082764,1756.417969 2579.345703,1796.729492 
	C2563.608398,1837.042603 2547.684570,1877.283081 2531.944092,1917.594971 
	C2516.204346,1957.905640 2500.629639,1998.280762 2484.910156,2038.599365 
	C2468.947998,2079.540527 2452.864502,2120.434326 2436.894775,2161.372803 
	C2421.167725,2201.688477 2405.498779,2242.027100 2389.837646,2282.368652 
	C2374.176758,2322.710205 2358.575439,2363.074951 2342.914307,2403.416504 
	C2327.012451,2444.377930 2311.284424,2485.408447 2295.082764,2526.250977 
	C2279.171387,2566.361816 2264.657227,2607.048828 2246.260010,2649.495361 
	C2242.256592,2640.862793 2239.218506,2635.130859 2236.872070,2629.128418 
	C2207.785400,2554.721191 2178.909912,2480.231689 2149.763428,2405.847900 
	C2102.397949,2284.967529 2054.956055,2164.116211 2007.266968,2043.363281 
	C2003.104370,2032.823242 2001.493530,2023.068726 2006.758789,2012.673584 
	C2008.553223,2009.130859 2009.622192,2005.224121 2011.074829,2001.504028 
	C2036.258545,1937.002930 2061.544189,1872.541260 2086.619385,1807.997803 
	C2128.570068,1700.015869 2170.342773,1591.964722 2212.305664,1483.987305 
	C2219.100830,1466.502197 2227.993164,1450.155151 2243.070801,1435.899902 
	C2244.046875,1434.125610 2246.284180,1431.635742 2245.760254,1430.712524 
	C2244.250244,1428.051270 2241.944092,1429.025269 2236.457764,1431.358887 
	C2223.803467,1431.388306 2211.142578,1431.180298 2198.496338,1431.514160 
	C2185.996338,1431.844116 2173.345215,1429.974243 2159.814453,1433.285767 
	C2151.755371,1454.285645 2143.692627,1475.351807 2135.586182,1496.401123 
	C2127.694824,1516.891602 2119.703369,1537.343628 2111.856934,1557.851196 
	C2103.773193,1578.980103 2095.833740,1600.164062 2087.791016,1621.308838 
	C2079.748779,1642.452271 2071.644287,1663.571899 2063.591309,1684.711304 
	C2055.537842,1705.851196 2047.558350,1727.019409 2039.465454,1748.144165 
	C2031.610107,1768.648926 2023.614258,1789.099854 2015.749512,1809.600952 
	C2007.646851,1830.722046 1999.834595,1851.957031 1991.513916,1872.991211 
	C1983.345215,1893.641113 1976.755371,1914.989624 1964.668213,1938.083252 
	C1940.535156,1879.064941 1918.383423,1822.915771 1895.770508,1766.958618 
	C1873.332642,1711.434814 1850.880615,1655.916626 1828.532104,1600.356934 
	C1805.980103,1544.291626 1784.064087,1487.964966 1760.396118,1431.489258 
	C1666.176880,1431.489258 1573.005493,1431.489258 1478.457520,1429.795898 
	C1476.834595,1430.228149 1475.211548,1430.660400 1473.588623,1431.092529 
	C1473.941650,1432.228516 1473.969971,1433.983276 1474.714355,1434.374023 
	C1476.355225,1435.235229 1478.357300,1435.408569 1482.789917,1436.712402 
	C1496.987427,1443.641113 1508.128784,1454.278931 1516.167236,1467.493652 
	C1524.793213,1481.673950 1532.860840,1496.381836 1539.352051,1511.634033 
	C1553.172852,1544.107666 1565.835938,1577.074707 1578.938110,1609.853638 
	C1662.988403,1820.130615 1747.038940,2030.407593 1831.035156,2240.706299 
	C1834.212036,2248.660400 1836.831543,2256.837402 1839.378418,2263.978271 
	C1776.812866,2422.623779 1714.748901,2579.996338 1652.690308,2737.370850 
	C1651.713867,2739.847168 1650.844116,2742.365967 1649.838501,2744.829834 
	C1649.336548,2746.059814 1648.692383,2747.241455 1648.009277,2748.383301 
	C1647.677979,2748.937256 1647.170898,2749.444336 1646.628418,2749.795410 
	C1646.179443,2750.086426 1645.561768,2750.116699 1643.646606,2750.630615 
	C1642.134033,2747.453613 1640.268188,2744.129639 1638.915894,2740.608398 
	C1588.533325,2609.423584 1538.170166,2478.231445 1487.866333,2347.016602 
	C1452.105469,2253.736572 1416.464355,2160.410889 1380.713257,2067.127197 
	C1341.864380,1965.760742 1303.069946,1864.373169 1264.030518,1763.080200 
	C1224.991577,1661.788330 1185.719238,1560.586426 1146.417480,1459.396240 
	C1142.842651,1450.192139 1138.306763,1441.361328 1134.321289,1432.586426 
	C1130.420532,1432.118286 1127.813965,1431.533081 1125.207275,1431.531982 
	C1034.541992,1431.491943 943.876770,1431.501099 853.211487,1431.545166 
	C850.728394,1431.546387 847.777954,1431.208862 847.321350,1435.169922 
	C848.708191,1436.389893 850.042603,1437.913818 851.683289,1438.954956 
	C881.558228,1457.913208 901.107178,1484.966309 913.602478,1517.605957 
	C918.603088,1530.668457 923.751343,1543.674316 928.807373,1556.715698 
	C957.936768,1631.850342 987.226440,1706.923462 1016.141296,1782.140625 
	C1053.420654,1879.116577 1090.391113,1976.211182 1127.507202,2073.250000 
	C1159.627441,2157.227051 1191.837280,2241.169922 1223.875977,2325.177979 
	C1258.286621,2415.406250 1292.458496,2505.725830 1326.890991,2595.945801 
	C1367.498047,2702.344727 1408.243652,2808.690674 1449.014160,2915.026855 
	C1453.749146,2927.376709 1459.026367,2939.518311 1464.188354,2952.088379 
	C1475.741943,2953.095215 1486.296021,2954.774658 1496.855957,2954.811768 
	C1565.520996,2955.053223 1634.187134,2954.955566 1702.853027,2954.910645 
	C1709.449097,2954.906494 1716.253052,2955.509766 1721.979858,2951.067383 
	C1716.739014,2941.032959 1710.873535,2931.357178 1706.475708,2921.055176 
	C1697.587524,2900.233887 1689.878418,2878.907471 1680.909912,2858.123047 
	C1676.637695,2848.222168 1676.861572,2839.422852 1680.833740,2829.491455 
	C1703.588501,2772.600098 1725.899902,2715.531250 1748.336914,2658.512695 
	C1781.747803,2573.606445 1815.112549,2488.682129 1848.558716,2403.789795 
	C1855.123901,2387.126465 1861.969604,2370.573730 1870.060181,2350.572510 
	C1882.761597,2377.374756 1891.441528,2402.311279 1901.420166,2426.661621 
	C1911.773315,2451.925781 1921.693359,2477.368164 1931.728516,2502.761719 
	C1941.520020,2527.539307 1951.186279,2552.366211 1960.965210,2577.148682 
	C1970.743164,2601.928955 1980.617554,2626.670898 1990.403564,2651.447754 
	C2000.435303,2676.846924 2010.391235,2702.275635 2020.417114,2727.677002 
	C2030.197876,2752.456787 2039.997925,2777.229248 2049.839844,2801.984863 
	C2059.927490,2827.359619 2070.087646,2852.705566 2080.195068,2878.072510 
	C2090.026123,2902.747314 2099.830566,2927.432617 2109.172119,2950.919434 
	C2118.166992,2955.857910 2126.280273,2954.908203 2134.207764,2954.914307 
	C2197.540283,2954.962402 2260.873779,2955.119385 2324.205078,2954.824463 
	C2341.478516,2954.743896 2358.748047,2953.277832 2376.009766,2952.286621 
	C2376.895020,2952.235596 2377.692383,2950.657715 2379.581543,2948.703857 
	C2376.062500,2944.540771 2372.531982,2939.965820 2368.592529,2935.774902 
	C2353.815186,2920.053711 2342.118896,2902.604492 2335.332031,2881.837891 
	C2330.372070,2866.661377 2324.039062,2851.937012 2318.449707,2836.961670 
	C2307.738037,2808.261230 2297.340576,2779.440918 2286.330322,2750.855957 
	C2282.992676,2742.190430 2282.623779,2734.373535 2286.564453,2725.860596 
	C2291.036377,2716.200684 2294.688721,2706.156738 2298.590332,2696.237793 
	C2339.302246,2592.732422 2379.919678,2489.189697 2420.711182,2385.715820 
	C2454.664307,2299.589111 2488.901611,2213.574463 2522.855713,2127.447754 
	C2563.404297,2024.594238 2603.765625,1921.666992 2644.245117,1818.786133 
	C2680.334961,1727.062012 2716.468262,1635.354858 2752.604492,1543.649048 
	C2756.267090,1534.354370 2760.247559,1525.182373 2763.768066,1515.835571 
	C2765.972900,1509.981934 2770.003662,1507.515625 2777.583740,1509.469971 
	C2781.437012,1511.848755 2784.917725,1511.442383 2791.532471,1508.210571 
	C2838.083984,1511.477539 2883.871582,1519.056641 2929.124268,1530.653320 
	C2984.972168,1544.964966 3037.952637,1565.911011 3087.414062,1595.555542 
	C3124.321289,1617.675781 3157.149902,1644.551147 3182.576172,1679.642700 
	C3214.761719,1724.063354 3232.028809,1773.448364 3231.794678,1828.680542 
	C3231.706055,1849.535400 3228.087646,1869.936401 3222.336182,1889.641235 
	C3199.092529,1969.275635 3155.522949,2035.805908 3090.048584,2087.125977 
	C3021.024170,2141.228760 2941.498291,2165.887207 2854.516846,2168.227295 
	C2839.209717,2168.639160 2823.876465,2168.000977 2808.555176,2168.004150 
	C2804.060791,2168.005127 2799.566406,2168.545898 2792.495361,2169.007568 
	C2794.247803,2187.930664 2789.461914,2206.202881 2797.137939,2224.464111 
	C2802.157471,2223.832764 2806.050049,2223.324951 2809.947266,2222.857910 
	C2814.533447,2222.307861 2819.309326,2220.709961 2823.679932,2221.456787 
	C2840.253906,2224.287598 2856.284668,2229.027588 2868.508545,2241.514648 
	C2876.872070,2250.058350 2885.332275,2258.663818 2892.509277,2268.177002 
	C2903.728516,2283.047363 2913.814209,2298.768311 2924.526611,2314.026123 
	C2977.704834,2389.769043 3030.886963,2465.509277 3084.152100,2541.190918 
	C3159.644043,2648.453125 3235.184082,2755.681641 3310.762207,2862.882812 
	C3329.177734,2889.002930 3348.270020,2914.658447 3366.161377,2941.128906 
	C3374.109375,2952.887939 3384.718506,2957.661865 3397.862305,2958.845459 
	C3402.492920,2959.262207 3407.180664,2959.089111 3411.842773,2959.103271 
	C3447.817871,2959.211670 3483.792969,2959.366699 3519.768066,2959.377197 
	C3569.063721,2959.391602 3618.359131,2959.291748 3670.113770,2959.700928 
	C3671.540527,2958.851562 3674.113525,2958.098145 3674.193848,2957.135986 
	C3674.526855,2953.154785 3671.229004,2952.425537 3666.486816,2949.720459 
	C3634.569092,2925.411865 3605.584229,2897.900635 3578.893799,2868.042480 
	C3543.322754,2828.250244 3511.462646,2785.491455 3481.054443,2741.705078 
	C3403.151855,2629.530029 3325.643066,2517.081299 3247.981201,2404.739258 
	C3210.476562,2350.486816 3173.065186,2296.169189 3135.368896,2242.050293 
	C3130.876709,2235.601562 3124.850586,2230.220703 3119.706055,2221.840088 
	C3120.073975,2220.212158 3120.441895,2218.584473 3123.881104,2216.430420 
z"/>
<path fill="#F3C25C" opacity="1.000000" stroke="none" 
	d="
M1479.834106,1431.489258 
	C1573.005493,1431.489258 1666.176880,1431.489258 1760.396118,1431.489258 
	C1784.064087,1487.964966 1805.980103,1544.291626 1828.532104,1600.356934 
	C1850.880615,1655.916626 1873.332642,1711.434814 1895.770508,1766.958618 
	C1918.383423,1822.915771 1940.535156,1879.064941 1964.668213,1938.083252 
	C1976.755371,1914.989624 1983.345215,1893.641113 1991.513916,1872.991211 
	C1999.834595,1851.957031 2007.646851,1830.722046 2015.749512,1809.600952 
	C2023.614258,1789.099854 2031.610107,1768.648926 2039.465454,1748.144165 
	C2047.558350,1727.019409 2055.537842,1705.851196 2063.591309,1684.711304 
	C2071.644287,1663.571899 2079.748779,1642.452271 2087.791016,1621.308838 
	C2095.833740,1600.164062 2103.773193,1578.980103 2111.856934,1557.851196 
	C2119.703369,1537.343628 2127.694824,1516.891602 2135.586182,1496.401123 
	C2143.692627,1475.351807 2151.755371,1454.285645 2159.814453,1433.285767 
	C2173.345215,1429.974243 2185.996338,1431.844116 2198.496338,1431.514160 
	C2211.142578,1431.180298 2223.803467,1431.388306 2238.549316,1432.564209 
	C2240.762451,1434.631226 2240.884033,1435.492798 2241.005615,1436.354492 
	C2227.993164,1450.155151 2219.100830,1466.502197 2212.305664,1483.987305 
	C2170.342773,1591.964722 2128.570068,1700.015869 2086.619385,1807.997803 
	C2061.544189,1872.541260 2036.258545,1937.002930 2011.074829,2001.504028 
	C2009.622192,2005.224121 2008.553223,2009.130859 2006.758789,2012.673584 
	C2001.493530,2023.068726 2003.104370,2032.823242 2007.266968,2043.363281 
	C2054.956055,2164.116211 2102.397949,2284.967529 2149.763428,2405.847900 
	C2178.909912,2480.231689 2207.785400,2554.721191 2236.872070,2629.128418 
	C2239.218506,2635.130859 2242.256592,2640.862793 2246.260010,2649.495361 
	C2264.657227,2607.048828 2279.171387,2566.361816 2295.082764,2526.250977 
	C2311.284424,2485.408447 2327.012451,2444.377930 2342.914307,2403.416504 
	C2358.575439,2363.074951 2374.176758,2322.710205 2389.837646,2282.368652 
	C2405.498779,2242.027100 2421.167725,2201.688477 2436.894775,2161.372803 
	C2452.864502,2120.434326 2468.947998,2079.540527 2484.910156,2038.599365 
	C2500.629639,1998.280762 2516.204346,1957.905640 2531.944092,1917.594971 
	C2547.684570,1877.283081 2563.608398,1837.042603 2579.345703,1796.729492 
	C2595.082764,1756.417969 2610.682861,1716.052979 2626.352539,1675.715210 
	C2642.262939,1634.757446 2658.101807,1593.771606 2674.125488,1552.858276 
	C2689.859863,1512.684204 2704.930420,1472.236084 2721.453613,1432.276489 
	C2728.223145,1431.951660 2733.480957,1431.487549 2738.739258,1431.483276 
	C2763.395996,1431.463379 2788.057617,1431.895630 2812.707275,1431.508545 
	C2827.322510,1431.279053 2841.913330,1429.177979 2856.524414,1429.057739 
	C2891.131836,1428.772949 2925.777344,1426.644897 2960.337158,1430.815308 
	C2968.905518,1431.849121 2977.646240,1431.389526 2986.297607,1431.815063 
	C3043.115479,1434.608887 3098.684814,1443.730957 3152.172363,1463.915894 
	C3212.257812,1486.590820 3265.799072,1519.589355 3310.431396,1565.883545 
	C3364.446533,1621.910645 3401.050049,1688.061646 3414.503662,1764.838501 
	C3434.200439,1877.245605 3411.302002,1980.776855 3341.198242,2072.105225 
	C3287.149658,2142.517334 3216.480957,2189.215088 3131.713135,2214.876221 
	C3129.177979,2215.643799 3126.495117,2215.923340 3121.108398,2216.496826 
	C3116.762695,2218.003174 3115.189453,2219.443115 3113.616211,2220.883057 
	C3115.589355,2222.037109 3117.562500,2223.190918 3119.535645,2224.344971 
	C3124.850586,2230.220703 3130.876709,2235.601562 3135.368896,2242.050293 
	C3173.065186,2296.169189 3210.476562,2350.486816 3247.981201,2404.739258 
	C3325.643066,2517.081299 3403.151855,2629.530029 3481.054443,2741.705078 
	C3511.462646,2785.491455 3543.322754,2828.250244 3578.893799,2868.042480 
	C3605.584229,2897.900635 3634.569092,2925.411865 3667.278320,2951.990234 
	C3667.931396,2955.920166 3667.792969,2957.580566 3667.654785,2959.240723 
	C3618.359131,2959.291748 3569.063721,2959.391602 3519.768066,2959.377197 
	C3483.792969,2959.366699 3447.817871,2959.211670 3411.842773,2959.103271 
	C3407.180664,2959.089111 3402.492920,2959.262207 3397.862305,2958.845459 
	C3384.718506,2957.661865 3374.109375,2952.887939 3366.161377,2941.128906 
	C3348.270020,2914.658447 3329.177734,2889.002930 3310.762207,2862.882812 
	C3235.184082,2755.681641 3159.644043,2648.453125 3084.152100,2541.190918 
	C3030.886963,2465.509277 2977.704834,2389.769043 2924.526611,2314.026123 
	C2913.814209,2298.768311 2903.728516,2283.047363 2892.509277,2268.177002 
	C2885.332275,2258.663818 2876.872070,2250.058350 2868.508545,2241.514648 
	C2856.284668,2229.027588 2840.253906,2224.287598 2823.679932,2221.456787 
	C2819.309326,2220.709961 2814.533447,2222.307861 2809.947266,2222.857910 
	C2806.050049,2223.324951 2802.157471,2223.832764 2797.137939,2224.464111 
	C2789.461914,2206.202881 2794.247803,2187.930664 2792.495361,2169.007568 
	C2799.566406,2168.545898 2804.060791,2168.005127 2808.555176,2168.004150 
	C2823.876465,2168.000977 2839.209717,2168.639160 2854.516846,2168.227295 
	C2941.498291,2165.887207 3021.024170,2141.228760 3090.048584,2087.125977 
	C3155.522949,2035.805908 3199.092529,1969.275635 3222.336182,1889.641235 
	C3228.087646,1869.936401 3231.706055,1849.535400 3231.794678,1828.680542 
	C3232.028809,1773.448364 3214.761719,1724.063354 3182.576172,1679.642700 
	C3157.149902,1644.551147 3124.321289,1617.675781 3087.414062,1595.555542 
	C3037.952637,1565.911011 2984.972168,1544.964966 2929.124268,1530.653320 
	C2883.871582,1519.056641 2838.083984,1511.477539 2788.993896,1507.246582 
	C2782.575928,1503.857056 2779.083252,1504.250366 2776.012695,1507.716309 
	C2770.003662,1507.515625 2765.972900,1509.981934 2763.768066,1515.835571 
	C2760.247559,1525.182373 2756.267090,1534.354370 2752.604492,1543.649048 
	C2716.468262,1635.354858 2680.334961,1727.062012 2644.245117,1818.786133 
	C2603.765625,1921.666992 2563.404297,2024.594238 2522.855713,2127.447754 
	C2488.901611,2213.574463 2454.664307,2299.589111 2420.711182,2385.715820 
	C2379.919678,2489.189697 2339.302246,2592.732422 2298.590332,2696.237793 
	C2294.688721,2706.156738 2291.036377,2716.200684 2286.564453,2725.860596 
	C2282.623779,2734.373535 2282.992676,2742.190430 2286.330322,2750.855957 
	C2297.340576,2779.440918 2307.738037,2808.261230 2318.449707,2836.961670 
	C2324.039062,2851.937012 2330.372070,2866.661377 2335.332031,2881.837891 
	C2342.118896,2902.604492 2353.815186,2920.053711 2368.592529,2935.774902 
	C2372.531982,2939.965820 2376.062500,2944.540771 2379.581543,2948.703857 
	C2377.692383,2950.657715 2376.895020,2952.235596 2376.009766,2952.286621 
	C2358.748047,2953.277832 2341.478516,2954.743896 2324.205078,2954.824463 
	C2260.873779,2955.119385 2197.540283,2954.962402 2134.207764,2954.914307 
	C2126.280273,2954.908203 2118.166992,2955.857910 2109.172119,2950.919434 
	C2099.830566,2927.432617 2090.026123,2902.747314 2080.195068,2878.072510 
	C2070.087646,2852.705566 2059.927490,2827.359619 2049.839844,2801.984863 
	C2039.997925,2777.229248 2030.197876,2752.456787 2020.417114,2727.677002 
	C2010.391235,2702.275635 2000.435303,2676.846924 1990.403564,2651.447754 
	C1980.617554,2626.670898 1970.743164,2601.928955 1960.965210,2577.148682 
	C1951.186279,2552.366211 1941.520020,2527.539307 1931.728516,2502.761719 
	C1921.693359,2477.368164 1911.773315,2451.925781 1901.420166,2426.661621 
	C1891.441528,2402.311279 1882.761597,2377.374756 1870.060181,2350.572510 
	C1861.969604,2370.573730 1855.123901,2387.126465 1848.558716,2403.789795 
	C1815.112549,2488.682129 1781.747803,2573.606445 1748.336914,2658.512695 
	C1725.899902,2715.531250 1703.588501,2772.600098 1680.833740,2829.491455 
	C1676.861572,2839.422852 1676.637695,2848.222168 1680.909912,2858.123047 
	C1689.878418,2878.907471 1697.587524,2900.233887 1706.475708,2921.055176 
	C1710.873535,2931.357178 1716.739014,2941.032959 1721.979858,2951.067383 
	C1716.253052,2955.509766 1709.449097,2954.906494 1702.853027,2954.910645 
	C1634.187134,2954.955566 1565.520996,2955.053223 1496.855957,2954.811768 
	C1486.296021,2954.774658 1475.741943,2953.095215 1464.188354,2952.088379 
	C1459.026367,2939.518311 1453.749146,2927.376709 1449.014160,2915.026855 
	C1408.243652,2808.690674 1367.498047,2702.344727 1326.890991,2595.945801 
	C1292.458496,2505.725830 1258.286621,2415.406250 1223.875977,2325.177979 
	C1191.837280,2241.169922 1159.627441,2157.227051 1127.507202,2073.250000 
	C1090.391113,1976.211182 1053.420654,1879.116577 1016.141296,1782.140625 
	C987.226440,1706.923462 957.936768,1631.850342 928.807373,1556.715698 
	C923.751343,1543.674316 918.603088,1530.668457 913.602478,1517.605957 
	C901.107178,1484.966309 881.558228,1457.913208 851.683289,1438.954956 
	C850.042603,1437.913818 848.708191,1436.389893 847.321350,1435.169922 
	C847.777954,1431.208862 850.728394,1431.546387 853.211487,1431.545166 
	C943.876770,1431.501099 1034.541992,1431.491943 1125.207275,1431.531982 
	C1127.813965,1431.533081 1130.420532,1432.118286 1134.321289,1432.586426 
	C1138.306763,1441.361328 1142.842651,1450.192139 1146.417480,1459.396240 
	C1185.719238,1560.586426 1224.991577,1661.788330 1264.030518,1763.080200 
	C1303.069946,1864.373169 1341.864380,1965.760742 1380.713257,2067.127197 
	C1416.464355,2160.410889 1452.105469,2253.736572 1487.866333,2347.016602 
	C1538.170166,2478.231445 1588.533325,2609.423584 1638.915894,2740.608398 
	C1640.268188,2744.129639 1642.134033,2747.453613 1643.646606,2750.630615 
	C1645.561768,2750.116699 1646.179443,2750.086426 1646.628418,2749.795410 
	C1647.170898,2749.444336 1647.677979,2748.937256 1648.009277,2748.383301 
	C1648.692383,2747.241455 1649.336548,2746.059814 1649.838501,2744.829834 
	C1650.844116,2742.365967 1651.713867,2739.847168 1652.690308,2737.370850 
	C1714.748901,2579.996338 1776.812866,2422.623779 1839.378418,2263.978271 
	C1836.831543,2256.837402 1834.212036,2248.660400 1831.035156,2240.706299 
	C1747.038940,2030.407593 1662.988403,1820.130615 1578.938110,1609.853638 
	C1565.835938,1577.074707 1553.172852,1544.107666 1539.352051,1511.634033 
	C1532.860840,1496.381836 1524.793213,1481.673950 1516.167236,1467.493652 
	C1508.128784,1454.278931 1496.987427,1443.641113 1481.364258,1435.197998 
	C1479.903809,1432.952271 1479.868896,1432.220825 1479.834106,1431.489258 
z"/>
<path fill="#F8DEA6" opacity="1.000000" stroke="none" 
	d="
M2776.798340,1508.593140 
	C2779.083252,1504.250366 2782.575928,1503.857056 2787.229248,1507.179932 
	C2784.917725,1511.442383 2781.437012,1511.848755 2776.798340,1508.593140 
z"/>
<path fill="#FAEDD0" opacity="1.000000" stroke="none" 
	d="
M1479.145752,1430.642578 
	C1479.868896,1432.220825 1479.903809,1432.952271 1480.075195,1434.773193 
	C1478.357300,1435.408569 1476.355225,1435.235229 1474.714355,1434.374023 
	C1473.969971,1433.983276 1473.941650,1432.228516 1473.588623,1431.092529 
	C1475.211548,1430.660400 1476.834595,1430.228149 1479.145752,1430.642578 
z"/>
<path fill="#FAEDD0" opacity="1.000000" stroke="none" 
	d="
M2242.038086,1436.127197 
	C2240.884033,1435.492798 2240.762451,1434.631226 2240.434570,1432.479004 
	C2241.944092,1429.025269 2244.250244,1428.051270 2245.760254,1430.712524 
	C2246.284180,1431.635742 2244.046875,1434.125610 2242.038086,1436.127197 
z"/>
<path fill="#F8DEA6" opacity="1.000000" stroke="none" 
	d="
M3119.620850,2223.092529 
	C3117.562500,2223.190918 3115.589355,2222.037109 3113.616211,2220.883057 
	C3115.189453,2219.443115 3116.762695,2218.003174 3119.572998,2216.759766 
	C3120.441895,2218.584473 3120.073975,2220.212158 3119.620850,2223.092529 
z"/>
<path fill="#F6D692" opacity="1.000000" stroke="none" 
	d="
M3668.884277,2959.470703 
	C3667.792969,2957.580566 3667.931396,2955.920166 3668.122803,2953.008301 
	C3671.229004,2952.425537 3674.526855,2953.154785 3674.193848,2957.135986 
	C3674.113525,2958.098145 3671.540527,2958.851562 3668.884277,2959.470703 
z"/>
</svg>